<svg width="800" height="800" viewBox="0 0 800 800" fill="none" xmlns="http://www.w3.org/2000/svg">
<path d="M455.054 400C455.054 385.808 450.513 374.17 440.171 363.1L249.481 152.771C241.914 144.255 232.581 140 221.483 140C199.286 140 181.125 160.439 181.125 185.131C181.125 197.62 185.665 209.258 193.989 218.341L360.213 399.716L193.989 581.376C185.665 590.743 181.125 602.096 181.125 614.869C181.125 639.847 199.286 660 221.483 660C232.581 660 241.914 655.742 249.481 647.227L440.171 436.9C450.765 425.546 455.054 413.909 455.054 400Z" fill="#32302C"/>
<path d="M619.875 400C619.875 385.808 615.334 374.17 604.993 363.1L414.302 152.771C406.735 144.255 397.402 140 386.304 140C364.107 140 345.947 160.439 345.947 185.131C345.947 197.62 350.487 209.258 358.81 218.341L525.034 399.716L358.81 581.376C350.487 590.743 345.947 602.096 345.947 614.869C345.947 639.847 364.107 660 386.304 660C397.402 660 406.736 655.742 414.302 647.227L604.993 436.9C615.587 425.546 619.875 413.909 619.875 400Z" fill="#32302C"/>
</svg>
