<svg width="800" height="800" viewBox="0 0 800 800" fill="none" xmlns="http://www.w3.org/2000/svg">
<path d="M352.24 340.2C352.24 334.365 349.922 328.769 345.796 324.644C341.671 320.518 336.075 318.2 330.24 318.2C324.405 318.2 318.809 320.518 314.684 324.644C310.558 328.769 308.24 334.365 308.24 340.2V579.36C308.24 582.249 308.809 585.11 309.915 587.779C311.02 590.448 312.641 592.873 314.684 594.916C316.727 596.959 319.152 598.58 321.821 599.685C324.49 600.791 327.351 601.36 330.24 601.36C333.129 601.36 335.99 600.791 338.659 599.685C341.328 598.58 343.753 596.959 345.796 594.916C347.839 592.873 349.46 590.448 350.565 587.779C351.671 585.11 352.24 582.249 352.24 579.36V340.2ZM491.76 340.2C491.76 334.365 489.442 328.769 485.316 324.644C481.191 320.518 475.595 318.2 469.76 318.2C463.925 318.2 458.329 320.518 454.204 324.644C450.078 328.769 447.76 334.365 447.76 340.2V579.36C447.76 582.249 448.329 585.11 449.435 587.779C450.54 590.448 452.161 592.873 454.204 594.916C456.247 596.959 458.672 598.58 461.341 599.685C464.01 600.791 466.871 601.36 469.76 601.36C472.649 601.36 475.51 600.791 478.179 599.685C480.848 598.58 483.273 596.959 485.316 594.916C487.359 592.873 488.98 590.448 490.085 587.779C491.191 585.11 491.76 582.249 491.76 579.36V340.2Z" fill="#8D8C8B"/>
<path d="M255.44 157V215.56H140.92C134.29 215.56 127.931 218.194 123.242 222.882C118.554 227.571 115.92 233.93 115.92 240.56C115.92 247.19 118.554 253.549 123.242 258.238C127.931 262.926 134.29 265.56 140.92 265.56H176.8L192.52 611.4C193.653 636.342 204.359 659.887 222.412 677.135C240.464 694.383 264.472 704.005 289.44 704H510.56C535.521 703.995 559.519 694.368 577.563 677.121C595.607 659.874 606.308 636.335 607.44 611.4L623.16 265.56H659.08C665.71 265.56 672.069 262.926 676.758 258.238C681.446 253.549 684.08 247.19 684.08 240.56C684.08 233.93 681.446 227.571 676.758 222.882C672.069 218.194 665.71 215.56 659.08 215.56H544.56V157C544.56 123.32 517.24 96 483.56 96H316.4C282.72 96 255.44 123.32 255.44 157ZM316.4 146H483.6C489.6 146 494.56 150.92 494.56 157V215.56H305.44V157C305.44 150.92 310.36 146 316.4 146ZM280.4 265.6H573.12L557.52 609.12C556.974 621.207 551.788 632.618 543.041 640.978C534.294 649.338 522.66 654.002 510.56 654H289.44C277.341 654.002 265.706 649.338 256.959 640.978C248.212 632.618 243.026 621.207 242.48 609.12L226.88 265.56L280.4 265.6Z" fill="#8D8C8B"/>
</svg>
