<svg width="800" height="800" viewBox="0 0 800 800" fill="none" xmlns="http://www.w3.org/2000/svg">
<path d="M651.607 189.762L629.719 211.613L588.577 170.434L610.688 148.397C616.133 143.008 623.486 139.985 631.147 139.985C638.809 139.985 646.161 143.008 651.607 148.397C662.811 159.601 662.811 178.076 651.607 189.28V189.762ZM350.221 491.038L603.083 238.287L561.903 197.108L308.819 449.673C304.909 453.864 301.926 458.832 300.064 464.253L289.343 498.828C287.414 506.1 294.203 512.926 301.029 510.477L335.604 499.793C341.152 498.188 346.188 495.171 350.221 491.038Z" fill="#6D6B66"/>
<path d="M191.373 260.894C191.373 222.468 222.53 191.348 260.919 191.348H437.101C443.249 191.348 449.145 188.906 453.493 184.558C457.84 180.211 460.282 174.315 460.282 168.166C460.282 162.018 457.84 156.122 453.493 151.774C449.145 147.427 443.249 144.985 437.101 144.985H260.919C230.178 144.985 200.696 157.196 178.959 178.934C157.222 200.671 145.01 230.153 145.01 260.894V539.076C145.01 603.094 196.937 654.985 260.919 654.985H539.101C603.12 654.985 655.01 603.057 655.01 539.076V362.894C655.01 356.745 652.567 350.849 648.22 346.502C643.873 342.154 637.976 339.712 631.828 339.712C625.68 339.712 619.783 342.154 615.436 346.502C611.088 350.849 608.646 356.745 608.646 362.894V539.076C608.646 577.502 577.49 608.621 539.101 608.621H260.919C251.786 608.621 242.743 606.822 234.305 603.327C225.867 599.832 218.201 594.709 211.743 588.252C205.285 581.794 200.162 574.127 196.667 565.689C193.172 557.252 191.373 548.208 191.373 539.076V260.894Z" fill="#6D6B66"/>
</svg>
