<svg width="800" height="800" viewBox="0 0 800 800" fill="none" xmlns="http://www.w3.org/2000/svg">
<path d="M400 137C408.752 137 417.146 140.477 423.334 146.665C429.523 152.854 433 161.248 433 170V367H630C638.752 367 647.146 370.477 653.334 376.665C659.523 382.854 663 391.248 663 400C663 408.752 659.523 417.146 653.334 423.334C647.146 429.523 638.752 433 630 433H433V630C433 638.752 429.523 647.146 423.334 653.334C417.146 659.523 408.752 663 400 663C391.248 663 382.854 659.523 376.665 653.334C370.477 647.146 367 638.752 367 630V433H170C161.248 433 152.854 429.523 146.665 423.334C140.477 417.146 137 408.752 137 400C137 391.248 140.477 382.854 146.665 376.665C152.854 370.477 161.248 367 170 367H367V170C367 161.248 370.477 152.854 376.665 146.665C382.854 140.477 391.248 137 400 137Z" fill="#474644" fill-opacity="0.6"/>
</svg>
