<svg width="800" height="800" viewBox="0 0 800 800" fill="none" xmlns="http://www.w3.org/2000/svg">
<path d="M586.849 398.177C586.849 381.901 580.989 368.555 567.643 355.859L321.549 114.647C311.784 104.88 299.739 100 285.417 100C256.771 100 233.333 123.44 233.333 151.758C233.333 166.081 239.193 179.427 249.935 189.844L464.453 397.851L249.935 606.185C239.193 616.927 233.333 629.948 233.333 644.597C233.333 673.242 256.771 696.354 285.417 696.354C299.739 696.354 311.784 691.471 321.549 681.706L567.643 440.495C581.315 427.474 586.849 414.128 586.849 398.177Z" fill="#51493C" fill-opacity="0.32"/>
</svg>
